<?xml version="1.0" encoding="UTF-8"?>
<svg xmlns="http://www.w3.org/2000/svg" xmlns:xlink="http://www.w3.org/1999/xlink" width="30pt" height="30.000001pt" viewBox="0 0 30 30.000001" version="1.2">
<defs>
<clipPath id="clip1">
  <path d="M 1.464844 0 L 28 0 L 28 29 L 1.464844 29 Z M 1.464844 0 "/>
</clipPath>
</defs>
<g id="surface1">
<g clip-path="url(#clip1)" clip-rule="nonzero">
<path style=" stroke:none;fill-rule:nonzero;fill:rgb(0%,0%,0%);fill-opacity:1;" d="M 2.757812 0.0625 C 2.046875 0.0625 1.464844 0.652344 1.464844 1.375 L 1.464844 23.058594 C 1.464844 23.78125 2.046875 24.371094 2.757812 24.371094 L 18.277344 24.371094 C 18.988281 24.371094 19.570312 23.78125 19.570312 23.058594 L 19.570312 1.375 C 19.570312 0.652344 18.988281 0.0625 18.277344 0.0625 Z M 20.863281 3.3125 L 20.863281 23.058594 C 20.863281 24.511719 19.707031 25.6875 18.277344 25.6875 L 9.292969 25.6875 L 20.066406 28.914062 C 20.191406 28.953125 20.320312 28.972656 20.441406 28.972656 C 21.015625 28.972656 21.546875 28.589844 21.714844 28.003906 L 27.921875 6.84375 C 28.128906 6.132812 27.722656 5.375 27.023438 5.167969 Z M 10.515625 8.601562 L 11.808594 8.601562 L 11.808594 17.144531 L 10.515625 17.144531 L 10.515625 11.230469 L 8.578125 11.230469 L 8.578125 10.148438 C 10.417969 10.148438 10.515625 8.601562 10.515625 8.601562 Z M 10.515625 8.601562 "/>
</g>
</g>
</svg>
